<?xml version="1.0" encoding="utf-8"?>
<!-- Generator: Adobe Illustrator 24.1.1, SVG Export Plug-In . SVG Version: 6.00 Build 0)  -->
<svg version="1.1" id="Layer_1" xmlns="http://www.w3.org/2000/svg" xmlns:xlink="http://www.w3.org/1999/xlink" x="0px" y="0px"
	 viewBox="0 0 1000 1000" style="enable-background:new 0 0 1000 1000;" xml:space="preserve">
<style type="text/css">
	.st0{fill:#FFFFFF;}
</style>
<g>
	<path class="st0" d="M59.7,265.7c0,0,89.2-138.9,230.3-213.4s315-53,429,19.2c114,72.3,152.4,133.2,152.4,133.2l98.2-56.5
		c0,0,20.3-10.2,20.3,13.5v354.5c0,0,0,31.6-23.7,20.3c-19.9-9.5-235.7-133.3-303.6-172.3c-37.3-16.8-4.5-30.4-4.5-30.4l94.8-54.7
		c0,0-54.1-68.3-133.2-104.5C535,130.3,455.7,125,358.6,162c-63.3,24.1-137.9,85.9-191.6,177.2L59.7,265.7L59.7,265.7z"/>
	<path class="st0" d="M940.3,734.3c0,0-89.2,138.9-230.3,213.4s-315,53.1-429-19.2S128.6,795.3,128.6,795.3l-98.2,56.4
		c0,0-20.3,10.2-20.3-13.5V483.6c0,0,0-31.6,23.7-20.3c19.9,9.5,235.7,133.3,303.6,172.3c37.3,16.8,4.5,30.4,4.5,30.4l-94.8,54.7
		c0,0,54.1,68.3,133.2,104.5c84.7,44.5,164,49.8,261.1,12.8c63.3-24.1,137.9-85.9,191.6-177.2L940.3,734.3L940.3,734.3z"/>
</g>
</svg>
